<svg width="298" height="74" viewBox="0 0 298 74" fill="none" xmlns="http://www.w3.org/2000/svg">
<mask id="mask0_1748_48" style="mask-type:alpha" maskUnits="userSpaceOnUse" x="0" y="0" width="298" height="74">
<rect width="298" height="74" fill="#444444"/>
</mask>
<g mask="url(#mask0_1748_48)">
<path d="M17.2281 56.8075C22.7514 56.8075 26.5173 59.7783 26.5173 64.13C26.5173 68.5654 22.1656 71.2852 14.9686 71.2852H2.03914V71.2015C2.75047 70.6157 3.4618 70.1554 4.38234 69.6114V45.7609C3.4618 45.2588 2.75047 44.7985 2.03914 44.2127V44.129H15.4289C21.1195 44.129 24.8017 46.3886 24.8017 50.28C24.8017 53.5437 22.2493 55.3011 16.726 56.8075H17.2281ZM11.8304 44.9659V56.8075H15.5126C17.0608 55.343 17.9813 53.6274 17.9813 50.8658C17.9813 46.6396 16.4331 44.9659 13.7552 44.9659H11.8304ZM14.5502 70.4483C17.1863 70.4483 19.1529 68.4398 19.1529 64.5484C19.1529 60.0712 17.1026 57.6443 13.3367 57.6443H11.8304V69.4022C12.8346 70.1554 13.6715 70.4483 14.5502 70.4483ZM46.3228 44.129H54.6077V44.2127C53.5616 45.2588 52.1808 46.4723 50.8836 47.4346L44.7746 59.2344V69.6114C45.737 70.1554 46.4901 70.6575 47.2015 71.2015V71.2852H34.8996V71.2015C35.6528 70.6157 36.3641 70.1554 37.3265 69.6114V60.4897L30.1295 45.7609C29.46 45.3843 28.4976 44.7567 27.8282 44.2127V44.129H40.9669V44.2127C40.13 44.7149 39.335 45.1751 38.2052 45.7609L44.1051 58.7741L49.9631 47.4346C48.6241 46.3886 47.6617 45.5099 46.3228 44.2127V44.129ZM89.1301 69.6114C90.0507 70.1554 90.8038 70.6575 91.557 71.2015V71.2852H79.4225V71.2015C80.1757 70.6157 80.8452 70.1554 81.7657 69.6114L80.636 47.4346H80.5523L72.1 70.9504H69.5894L61.6393 47.0581L60.2166 67.9796C61.6393 69.0256 62.9782 70.1554 64.0661 71.2015V71.2852H55.8231V71.2015C56.8273 70.1972 58.25 68.9419 59.4216 67.9796L60.9279 46.012C59.7982 45.3843 58.9613 44.8822 58.0408 44.2127V44.129H68.2086L74.1503 62.9166L80.887 44.129H90.4691V44.2127C89.6322 44.8822 88.7954 45.3843 87.7074 46.012L89.1301 69.6114ZM117.336 61.4102C117.504 64.2555 117.629 68.8164 117.629 71.2852H95.1594V71.2015C95.8708 70.6157 96.5821 70.1554 97.5026 69.6114V45.7609C96.5821 45.2588 95.8708 44.7985 95.1594 44.2127V44.129H116.834C116.834 46.5978 116.709 51.1168 116.541 53.9622H116.332L109.428 44.9241L104.951 44.9659V57.0585H107.21C108.256 55.4685 109.972 53.0835 111.269 51.5353H111.478V63.4605H111.269C109.93 61.8286 108.256 59.5691 107.21 57.8954H104.951V69.6114L107.461 70.4483H110.223L117.127 61.4102H117.336ZM142.5 63.7116C142.541 65.2598 142.541 67.7285 142.5 69.1512C140.366 70.6157 138.148 71.7036 134.34 71.7036C128.231 71.7036 123.168 66.8916 123.168 58.0209C123.168 49.0247 128.357 44.2964 134.675 44.2964C138.022 44.2964 140.114 45.0914 142.248 46.5559C142.29 47.8949 142.29 50.4473 142.248 51.9955H142.039L141.453 47.0162C140.073 45.6772 137.688 44.8404 134.675 44.8404C128.691 44.8404 123.796 49.4013 123.796 58.0209C123.796 66.5151 128.566 71.2015 134.34 71.1596C137.813 71.1596 140.324 70.0299 141.705 68.6909L142.29 63.7116H142.5ZM159.883 71.7036C152.854 71.7036 148.502 66.4732 148.502 58.0209C148.502 49.5686 152.854 44.2964 159.883 44.2964C166.913 44.2964 171.265 49.5686 171.265 58.0209C171.265 66.4732 166.913 71.7036 159.883 71.7036ZM159.925 71.1596C166.578 71.1596 170.637 66.1803 170.637 58.0209C170.637 49.8615 166.536 44.8404 159.883 44.8404C153.23 44.8404 149.13 49.8615 149.13 58.0209C149.13 66.1385 153.23 71.1596 159.925 71.1596ZM193.297 44.7149H200.285V45.2588H197.063V71.2852H196.477L180.117 45.7609V70.6994C180.703 70.7412 182.042 70.9086 183.339 71.0759V71.2852H176.351V71.0759C177.522 70.9086 178.903 70.7412 179.531 70.6994V45.2588H176.811V44.7149H180.117L196.477 70.1972V45.2588H193.297V44.7149ZM224.669 63.7116C224.711 65.2598 224.711 67.7285 224.669 69.1512C222.535 70.6157 220.317 71.7036 216.509 71.7036C210.4 71.7036 205.337 66.8916 205.337 58.0209C205.337 49.0247 210.526 44.2964 216.844 44.2964C220.192 44.2964 222.284 45.0914 224.418 46.5559C224.46 47.8949 224.46 50.4473 224.418 51.9955H224.208L223.623 47.0162C222.242 45.6772 219.857 44.8404 216.844 44.8404C210.861 44.8404 205.965 49.4013 205.965 58.0209C205.965 66.5151 210.735 71.2015 216.509 71.1596C219.982 71.1596 222.493 70.0299 223.874 68.6909L224.46 63.7116H224.669ZM248.12 63.7116C248.162 65.6782 248.162 69.0256 248.12 71.2852H229.96V70.7412H233.182V45.3007C232.554 45.2588 231.131 45.0914 229.96 44.9241V44.7149H247.283V51.9955H246.697V45.2588H233.768V57.5607H242.136C242.178 56.4309 242.345 54.799 242.513 53.6274H242.722V62.0379H242.513C242.345 60.7407 242.178 59.1925 242.136 58.1046H233.768V70.6994L235.399 70.7412H247.45L247.911 63.7116H248.12ZM262.623 44.7149C268.02 44.7149 271.493 47.6857 271.493 52.3303C271.493 56.8493 268.188 59.611 262.832 59.611H257.225V70.6994C258.229 70.7412 259.568 70.8667 260.865 71.0759V71.2852H253.417V71.0759C254.589 70.9086 256.011 70.7412 256.639 70.6994V45.2588H252.999V44.7149H262.623ZM262.874 59.067C267.853 59.067 270.908 56.5146 270.908 52.3303C270.908 48.0204 267.644 45.2588 262.664 45.2588H257.225V59.067H262.874ZM275.595 44.7149H295.68V51.9955H295.094V45.2588H285.93V70.6994C286.725 70.7412 288.273 70.9086 289.57 71.0759V71.2852H281.704V71.0759C282.876 70.9086 284.507 70.7412 285.344 70.6994V45.2588H276.181V51.9955H275.595V44.7149Z" fill="#444444"/>
<path d="M227.247 23.7617C227.315 24.1942 227.332 24.6107 227.273 25.0266C227.255 25.1533 227.289 25.1851 227.41 25.2227C227.784 25.3396 228.171 25.4414 228.51 25.6279C228.753 25.7617 228.971 25.9936 229.122 26.2312C229.483 26.796 230.029 27.0774 230.609 27.3325C231.251 27.6148 231.793 28.0101 231.998 28.7242C232.091 29.0499 232.119 29.3876 232.081 29.7294C232.033 30.157 232.017 30.5894 231.95 31.0135C231.866 31.5358 231.768 32.0584 231.632 32.5688C231.468 33.1799 231.232 33.7632 230.849 34.2821C230.378 34.9194 229.768 35.3612 229.046 35.6675C228.29 35.9883 227.49 36.1199 226.682 36.1955C226.215 36.2391 225.741 36.2033 225.27 36.2105C224.472 36.2226 223.69 36.0929 222.911 35.9497C222.491 35.8725 222.086 35.7181 221.67 35.6157C220.757 35.3909 219.91 34.989 219.046 34.6365C218.578 34.4456 218.127 34.2116 217.679 33.9758C216.857 33.543 216.03 33.1167 215.231 32.6452C214.595 32.2701 213.992 31.8375 213.382 31.4203C212.641 30.9135 211.962 30.3288 211.291 29.7322C210.336 28.8826 209.405 28.0096 208.514 27.0922C208.222 26.7915 207.898 26.5217 207.582 26.2446C207.493 26.166 207.382 26.1111 207.282 26.0452C207.162 25.9667 207.064 25.9806 206.945 26.073C206.403 26.4917 205.84 26.883 205.308 27.3127C204.47 27.99 203.632 28.6717 202.898 29.4641C202.328 30.0785 201.76 30.6966 201.23 31.345C200.411 32.3484 199.752 33.4613 199.188 34.6239C198.892 35.2334 198.668 35.8788 198.431 36.5156C198.285 36.9077 198.167 37.3109 198.055 37.7144C197.939 38.1368 197.839 38.5643 197.743 38.9922C197.669 39.3259 197.612 39.6636 197.547 39.9994C197.49 40.2926 197.42 40.5839 197.375 40.879C197.313 41.2906 197.264 41.7044 197.22 42.1183C197.179 42.4968 197.146 42.8766 197.118 43.2563C197.077 43.8128 197.038 44.3693 197.01 44.9265C196.983 45.4489 196.965 45.9721 196.954 46.4953C196.941 47.0974 196.942 47.6999 196.935 48.3022C196.93 48.7517 196.914 49.2012 196.916 49.6506C196.918 50.2374 196.935 50.8244 196.941 51.4113C196.945 51.8179 196.93 52.2248 196.943 52.6311C196.964 53.2427 197 53.8536 197.033 54.4645C197.052 54.807 197.088 55.1489 197.091 55.4913C197.092 55.5753 196.995 55.6602 196.943 55.7446C196.894 55.6663 196.81 55.5916 196.801 55.5089C196.734 54.899 196.669 54.2886 196.632 53.6763C196.602 53.1672 196.612 52.6556 196.602 52.1452C196.59 51.5827 196.571 51.0203 196.565 50.458C196.561 50.0973 196.579 49.7364 196.579 49.3757C196.58 48.9111 196.569 48.4463 196.573 47.9817C196.575 47.6666 196.598 47.3518 196.604 47.0368C196.61 46.7006 196.603 46.3641 196.613 46.028C196.62 45.7647 196.65 45.5019 196.655 45.2388C196.657 45.1017 196.623 44.9642 196.61 44.8264C196.592 44.6477 196.592 44.4663 196.562 44.2899C196.487 43.8491 196.409 43.4084 196.314 42.9718C196.21 42.4978 196.058 42.0399 195.84 41.6015C195.61 41.1365 195.278 40.7629 194.885 40.4365C194.676 40.2632 194.466 40.0908 194.249 39.928C194.181 39.8775 194.092 39.8509 194.009 39.8278C193.572 39.7067 193.137 39.5748 192.695 39.4778C192.411 39.4155 192.115 39.4052 191.824 39.3752C191.662 39.3585 191.499 39.3413 191.337 39.3381C190.9 39.3297 190.463 39.3251 190.026 39.3258C189.756 39.3263 189.486 39.359 189.218 39.3419C188.764 39.313 188.306 39.2869 187.859 39.2039C187.073 39.0576 186.338 38.7766 185.666 38.3175C185.228 38.0181 184.837 37.6776 184.522 37.2615C184.118 36.7256 183.846 36.1138 183.848 35.4336C183.849 34.8768 184.058 34.3808 184.506 34.0101C185.044 33.5658 185.687 33.4046 186.356 33.3409C186.753 33.3029 187.161 33.2953 187.556 33.3421C188.025 33.3976 188.504 33.4745 188.944 33.6366C189.497 33.8405 190.029 34.1152 190.545 34.4046C191.176 34.7587 191.743 35.2094 192.257 35.7193C192.519 35.9794 192.768 36.2544 193.006 36.5369C193.468 37.0847 193.808 37.7045 194.003 38.3936C194.078 38.657 194.115 38.9371 194.123 39.211C194.128 39.4393 194.287 39.5141 194.421 39.6271C194.763 39.9137 195.11 40.1945 195.443 40.491C195.839 40.8434 196.097 41.2901 196.294 41.7786C196.495 42.2779 196.607 42.7976 196.692 43.3257C196.697 43.3561 196.726 43.3824 196.744 43.4107C196.764 43.3817 196.8 43.3539 196.802 43.3237C196.819 43.0614 196.832 42.7987 196.844 42.536C196.846 42.5024 196.826 42.4668 196.83 42.4341C196.971 41.439 197.105 40.4431 197.259 39.45C197.317 39.0744 197.406 38.7018 197.506 38.335C197.736 37.5004 197.985 36.6727 198.295 35.8618C198.66 34.905 199.102 33.9872 199.615 33.1047C199.913 32.5903 200.253 32.0961 200.615 31.6238C201.142 30.9359 201.678 30.25 202.262 29.6118C202.778 29.0486 203.356 28.5403 203.926 28.0295C204.372 27.6293 204.843 27.255 205.313 26.8825C205.743 26.5422 206.185 26.2177 206.624 25.8907C206.701 25.834 206.7 25.8062 206.667 25.7084C206.298 24.6137 205.602 23.7169 204.924 22.8124C204.527 22.2835 204.085 21.7885 203.673 21.2699C203.25 20.7366 202.823 20.205 202.428 19.6509C202.048 19.1173 201.695 18.5635 201.352 18.005C200.942 17.3379 200.532 16.6691 200.167 15.977C199.841 15.359 199.546 14.7206 199.292 14.0699C198.952 13.1974 198.707 12.2927 198.604 11.3577C198.537 10.7419 198.466 10.124 198.449 9.5057C198.435 8.94097 198.482 8.3737 198.52 7.80881C198.543 7.46177 198.572 7.11127 198.645 6.77229C198.81 6.00412 199.005 5.24508 199.346 4.52757C199.558 4.07875 199.791 3.64291 200.094 3.25396C200.535 2.68849 201.029 2.16841 201.674 1.82699C202.108 1.59665 202.542 1.34688 203.005 1.19242C203.452 1.04325 203.934 0.978965 204.406 0.927495C204.694 0.896071 204.994 0.943215 205.285 0.982876C205.78 1.05017 206.228 1.25628 206.649 1.51601C207.221 1.86895 207.694 2.33557 208.14 2.83443C208.66 3.41608 209.177 4.00258 209.729 4.55318C210.23 5.05299 210.832 5.41546 211.526 5.59441C212.011 5.71934 212.499 5.82855 212.988 5.93454C213.347 6.0122 213.712 6.06173 214.069 6.14421C214.801 6.31313 215.508 6.56386 216.123 6.99629C216.55 7.29636 216.891 7.69332 217.061 8.21304C217.234 8.74276 217.357 9.27586 217.286 9.83758C217.267 9.98958 217.404 9.99979 217.482 10.014C218.033 10.1134 218.541 10.3229 218.996 10.6363C219.464 10.9588 219.87 11.3434 220.138 11.8689C220.468 12.5149 220.604 13.2151 220.806 13.8991C220.952 14.3906 221.164 14.8676 221.392 15.3287C221.738 16.0277 222.271 16.5902 222.81 17.1445C223.4 17.7518 224.003 18.3473 224.567 18.9785C225.053 19.5224 225.514 20.0914 225.942 20.6818C226.373 21.276 226.72 21.9273 226.964 22.6221C227.094 22.9843 227.157 23.3688 227.247 23.7617ZM203.254 2.0373C203.237 2.06096 203.215 2.08261 203.206 2.10875C202.999 2.70691 202.78 3.30141 202.591 3.90513C202.428 4.42771 202.291 4.95891 202.155 5.48984C202.058 5.87069 201.963 6.2541 201.903 6.64201C201.764 7.53079 201.628 8.42074 201.528 9.31439C201.457 9.95599 201.432 10.604 201.414 11.25C201.401 11.7475 201.399 12.2495 201.45 12.7434C201.524 13.446 201.646 14.1435 201.756 14.8419C201.889 15.6894 202.131 16.507 202.422 17.3138C202.751 18.2278 203.232 19.0597 203.756 19.8697C204.031 20.2928 204.31 20.7124 204.584 21.1358C204.975 21.741 205.365 22.3471 205.752 22.9549C205.983 23.3174 206.195 23.6893 206.307 24.1098C206.319 24.156 206.363 24.1937 206.392 24.2352C206.414 24.1814 206.451 24.1287 206.454 24.0737C206.466 23.8845 206.467 23.6948 206.47 23.5051C206.474 23.2217 206.501 22.9357 206.473 22.6553C206.391 21.8406 206.307 21.0251 206.185 20.2158C206.059 19.3875 205.938 18.5622 205.89 17.7232C205.85 17.0099 205.844 16.2975 205.939 15.596C206.091 14.4814 206.213 13.3576 206.558 12.2778C206.695 11.8467 206.839 11.4176 206.984 10.9889C207.243 10.2199 207.639 9.51801 208.05 8.82313C208.298 8.40416 208.538 7.98061 208.796 7.56827C209.124 7.04402 209.464 6.52645 209.806 6.01169C209.905 5.86325 210.027 5.72782 210.152 5.59996C210.187 5.56407 210.271 5.57566 210.332 5.56558C210.313 5.60982 210.301 5.65948 210.274 5.69739C210.206 5.79073 210.123 5.87357 210.06 5.96974C209.65 6.59783 209.228 7.21915 208.839 7.86085C208.419 8.55655 208.008 9.26016 207.636 9.98256C207.377 10.4855 207.16 11.0158 206.979 11.5522C206.773 12.1663 206.58 12.7923 206.465 13.4282C206.294 14.381 206.101 15.335 206.083 16.3095C206.075 16.7343 206.049 17.1612 206.078 17.584C206.125 18.2698 206.204 18.9535 206.282 19.6369C206.353 20.2549 206.44 20.8708 206.521 21.4875C206.533 21.5805 206.465 21.6938 206.586 21.761C206.616 21.6629 206.664 21.5662 206.67 21.4666C206.692 21.1461 206.668 20.82 206.716 20.5044C206.862 19.5415 207.032 18.5823 207.196 17.6224C207.276 17.1571 207.36 16.6924 207.451 16.2291C207.542 15.7643 207.637 15.3 207.743 14.8384C207.826 14.4772 207.916 14.1169 208.024 13.7626C208.179 13.2508 208.336 12.738 208.526 12.2384C208.765 11.6088 209.086 11.0175 209.465 10.4585C209.893 9.82739 210.387 9.25219 210.922 8.7113C211.437 8.19087 211.949 7.66741 212.62 7.33788C213.247 7.02997 213.899 6.81041 214.599 6.74956C214.638 6.74619 214.677 6.72973 214.716 6.71939C214.686 6.6883 214.661 6.65064 214.626 6.6277C214.593 6.60586 214.551 6.59531 214.511 6.58689C214.267 6.53511 214.023 6.48247 213.778 6.43555C213.369 6.35712 212.956 6.29616 212.55 6.20325C212.085 6.09658 211.614 5.99413 211.166 5.83351C210.572 5.62092 210.015 5.3141 209.567 4.86499C209 4.29745 208.454 3.70755 207.921 3.10822C207.456 2.58541 206.967 2.099 206.361 1.73673C205.959 1.49628 205.52 1.35313 205.066 1.2945C204.697 1.24685 204.314 1.27827 203.94 1.30227C203.712 1.3169 203.498 1.38871 203.422 1.65803C203.388 1.77812 203.315 1.8868 203.254 2.0373ZM210.751 25.511C210.722 25.5127 210.692 25.511 210.664 25.5168C210.09 25.637 209.509 25.6896 208.923 25.6977C208.699 25.7008 208.476 25.7022 208.253 25.7084C208.221 25.7094 208.189 25.7332 208.157 25.7465C208.188 25.7706 208.216 25.8097 208.25 25.8168C208.701 25.9102 209.114 26.1012 209.515 26.3176C210.261 26.7202 211.013 27.1154 211.744 27.5437C212.609 28.05 213.475 28.5474 214.451 28.8116C214.93 28.9413 215.406 29.0937 215.893 29.1782C216.475 29.2793 217.067 29.3226 217.655 29.383C217.935 29.4117 218.218 29.4419 218.499 29.4359C218.976 29.4259 219.453 29.3931 219.93 29.3602C220.845 29.2971 221.739 29.1073 222.616 28.8515C223.424 28.6163 224.201 28.3081 224.922 27.8605C225.662 27.4017 226.302 26.8554 226.643 26.0354C226.762 25.7512 226.864 25.4367 226.868 25.1348C226.871 24.788 226.649 24.4813 226.404 24.2493C225.847 23.7237 225.199 23.3491 224.422 23.2489C224.107 23.2084 223.791 23.1735 223.476 23.1399C223.314 23.1228 223.151 23.1051 222.989 23.103C222.583 23.0975 222.176 23.0964 221.769 23.1013C221.335 23.1066 220.901 23.1062 220.469 23.135C219.99 23.1669 219.514 23.2303 219.037 23.2782C218.045 23.3777 217.073 23.574 216.122 23.8692C215.272 24.1334 214.432 24.4304 213.586 24.7079C213.019 24.8941 212.453 25.084 211.879 25.2489C211.517 25.3534 211.142 25.4149 210.751 25.511ZM207.904 25.1822C207.817 25.2351 207.726 25.2836 207.643 25.3423C207.57 25.3938 207.506 25.457 207.438 25.515C207.52 25.5242 207.602 25.5428 207.684 25.5416C208.259 25.5331 208.837 25.5533 209.408 25.5025C210.439 25.4106 211.458 25.233 212.442 24.8947C213.355 24.5807 214.266 24.2571 215.186 23.9647C215.852 23.7532 216.526 23.5561 217.207 23.407C217.93 23.2489 218.663 23.1131 219.399 23.044C220.327 22.9565 221.262 22.9294 222.195 22.9093C222.748 22.8974 223.305 22.9244 223.856 22.9805C224.282 23.0239 224.712 23.0715 225.121 23.2397C225.847 23.5387 226.518 23.8928 226.872 24.6495C226.885 24.6771 226.916 24.6962 226.939 24.7192C226.96 24.6849 226.998 24.6503 226.998 24.6161C226.997 24.5244 226.976 24.433 226.969 24.3413C226.912 23.6355 226.794 22.9446 226.459 22.3093C226.272 21.9526 226.087 21.5935 225.877 21.2501C225.547 20.7103 225.184 20.1947 224.723 19.7522C224.312 19.3575 223.825 19.0719 223.367 18.7415C222.727 18.2786 222.022 17.9888 221.246 17.8668C220.994 17.8272 220.737 17.8182 220.484 17.7828C219.941 17.7065 219.397 17.7283 218.861 17.8019C217.705 17.9605 216.634 18.3726 215.685 19.0494C215.041 19.5085 214.432 20.0194 213.829 20.5319C213.251 21.0228 212.707 21.5534 212.136 22.0523C211.631 22.4938 211.119 22.9294 210.59 23.3417C210.234 23.6187 209.843 23.8488 209.47 24.1035C208.954 24.4559 208.44 24.8121 207.904 25.1822ZM216.882 33.1778C217.547 33.5067 218.211 33.8354 218.875 34.1647C219.812 34.6292 220.779 35.0182 221.789 35.2892C222.423 35.4594 223.066 35.5957 223.707 35.7382C223.846 35.769 223.994 35.7594 224.138 35.7709C224.481 35.798 224.823 35.8415 225.166 35.8513C225.649 35.8651 226.133 35.8703 226.615 35.8498C227.203 35.8251 227.782 35.7255 228.346 35.5569C228.734 35.4414 229.101 35.2837 229.45 35.0718C230.029 34.7205 230.498 34.2804 230.832 33.6813C231.156 33.0983 231.314 32.4646 231.444 31.8263C231.567 31.2195 231.599 30.5946 231.707 29.984C231.787 29.5363 231.708 29.1024 231.679 28.6629C231.677 28.6359 231.653 28.6106 231.639 28.5845C231.619 28.5973 231.593 28.6058 231.581 28.6238C231.556 28.6617 231.533 28.7029 231.518 28.7459C231.445 28.9563 231.399 29.1808 231.299 29.3769C230.813 30.3226 230.09 31.0605 229.184 31.5987C228.674 31.9017 228.121 32.14 227.568 32.3598C227.041 32.5692 226.498 32.7538 225.946 32.8812C225.366 33.0152 224.768 33.0949 224.174 33.1481C223.712 33.1894 223.237 33.1987 222.778 33.141C222.138 33.0606 221.504 32.9165 220.872 32.7768C220.472 32.6884 220.07 32.5879 219.689 32.4406C218.966 32.161 218.24 31.8798 217.548 31.5337C216.703 31.1115 215.89 30.6253 215.067 30.1606C214.304 29.7299 213.553 29.2763 212.783 28.8589C211.517 28.1728 210.24 27.5077 208.968 26.8339C208.867 26.7801 208.767 26.722 208.662 26.6771C208.632 26.6644 208.585 26.6912 208.546 26.6999C208.568 26.7263 208.587 26.7561 208.613 26.7782C208.727 26.8765 208.85 26.9659 208.957 27.0709C209.357 27.4618 209.738 27.8734 210.152 28.2488C211.4 29.3807 212.621 30.5462 214.039 31.4744C214.455 31.7472 214.865 32.0318 215.292 32.2888C215.803 32.5953 216.327 32.8784 216.882 33.1778ZM219.199 11.2265C218.669 10.7343 218.031 10.4663 217.328 10.3365C217.224 10.3172 217.114 10.3315 217.008 10.3212C216.733 10.2942 216.459 10.2492 216.184 10.2347C215.559 10.202 214.951 10.3244 214.359 10.5034C213.764 10.683 213.197 10.9316 212.67 11.2718C212.037 11.6802 211.447 12.1344 210.923 12.6792C210.376 13.2486 209.889 13.862 209.496 14.5451C209.175 15.1012 208.839 15.6545 208.588 16.2425C208.275 16.9779 208.025 17.7423 207.78 18.5048C207.636 18.9563 207.53 19.4239 207.451 19.8918C207.324 20.6503 207.234 21.4149 207.128 22.177C207.126 22.1893 207.123 22.2014 207.123 22.2137C207.101 22.6724 207.083 23.1313 207.058 23.5896C207.048 23.7828 207.023 23.975 207.009 24.168C207.007 24.1908 207.025 24.2152 207.035 24.2387C207.061 24.2263 207.096 24.2204 207.113 24.2002C207.138 24.1703 207.159 24.1318 207.168 24.0939C207.334 23.4261 207.684 22.8443 208.06 22.2843C208.497 21.631 208.982 21.0089 209.447 20.3743C209.828 19.8554 210.189 19.3203 210.599 18.8255C210.936 18.4197 211.35 18.0793 211.696 17.6812C212.343 16.939 212.968 16.178 213.597 15.4211C214.203 14.6918 214.788 13.9438 215.413 13.2311C215.767 12.8276 216.158 12.4465 216.578 12.1137C217.02 11.7639 217.536 11.5171 218.1 11.4147C218.435 11.3541 218.775 11.3398 219.09 11.5116C219.276 11.613 219.457 11.7238 219.641 11.8295C219.663 11.8424 219.689 11.85 219.713 11.8602C219.715 11.8266 219.729 11.7872 219.716 11.7606C219.699 11.7252 219.661 11.7003 219.633 11.6698C219.5 11.5241 219.368 11.378 219.199 11.2265ZM212.294 28.4217C213.011 28.8077 213.74 29.1731 214.443 29.5846C215.575 30.2488 216.701 30.9246 217.889 31.4885C218.317 31.6916 218.747 31.891 219.188 32.063C219.56 32.2084 219.947 32.3197 220.332 32.4314C220.773 32.5596 221.214 32.6953 221.664 32.7839C222.114 32.8725 222.574 32.9175 223.032 32.9618C223.357 32.9931 223.689 33.0232 224.013 32.9988C224.932 32.93 225.836 32.7635 226.716 32.4831C227.501 32.2332 228.275 31.9545 228.969 31.5026C229.363 31.2466 229.76 30.9834 230.104 30.6676C230.736 30.0869 231.166 29.3613 231.43 28.5437C231.454 28.4712 231.436 28.3415 231.386 28.2968C231.171 28.1061 230.95 27.9146 230.705 27.7662C230.421 27.594 230.106 27.4732 229.811 27.3174C229.646 27.2302 229.546 27.241 229.434 27.3891C229.316 27.5456 229.199 27.7041 229.069 27.8501C228.782 28.1727 228.418 28.3873 228.035 28.58C227.312 28.9427 226.567 29.2338 225.766 29.3616C225.249 29.4443 224.729 29.5251 224.208 29.5676C223.718 29.6077 223.224 29.5968 222.731 29.6079C222.461 29.6139 222.188 29.6494 221.923 29.6168C221.586 29.5755 221.248 29.7424 220.916 29.5924C220.884 29.5778 220.836 29.5967 220.796 29.6008C220.393 29.6413 219.99 29.6755 219.588 29.7237C218.78 29.8204 217.972 29.7694 217.165 29.7167C216.769 29.6909 216.374 29.6144 215.983 29.5359C215.474 29.4339 214.963 29.3317 214.467 29.1836C214.039 29.056 213.615 28.8955 213.218 28.6932C212.478 28.316 211.763 27.8891 211.029 27.4991C210.233 27.0762 209.43 26.668 208.625 26.2617C208.424 26.16 208.208 26.0842 207.995 26.0096C207.942 25.9913 207.871 26.0242 207.809 26.0336C207.852 26.0715 207.89 26.1199 207.939 26.1451C208.149 26.2524 208.365 26.3471 208.574 26.457C209.041 26.7028 209.504 26.9567 209.97 27.2035C210.3 27.3781 210.633 27.5461 210.964 27.7177C211.403 27.945 211.841 28.1729 212.294 28.4217ZM218.502 13.1688C218.195 13.3606 217.879 13.5392 217.583 13.747C217.042 14.1278 216.508 14.5203 215.979 14.918C215.534 15.2526 215.088 15.5885 214.663 15.9483C214.25 16.2983 213.844 16.6615 213.469 17.0514C213.034 17.5033 212.629 17.9848 212.224 18.4645C211.946 18.7946 211.679 19.1362 211.424 19.4854C210.985 20.0883 210.54 20.6889 210.133 21.3133C209.758 21.8882 209.46 22.5149 209.072 23.0795C208.599 23.7663 208.066 24.4117 207.561 25.0765C207.538 25.107 207.53 25.1494 207.516 25.1862C207.56 25.1821 207.616 25.1933 207.647 25.1707C207.749 25.0965 207.836 25.0009 207.941 24.9298C208.491 24.5554 209.058 24.2052 209.593 23.8106C210.362 23.243 211.117 22.6544 211.862 22.0549C212.276 21.7217 212.659 21.3487 213.055 20.9934C213.581 20.5225 214.088 20.0286 214.638 19.5872C215.095 19.2201 215.584 18.8829 216.092 18.5913C216.566 18.3199 217.071 18.0895 217.586 17.9083C218.133 17.7157 218.707 17.618 219.296 17.5899C219.825 17.5645 220.35 17.5573 220.874 17.6227C221.182 17.6612 221.494 17.7128 221.789 17.8049C222.177 17.9261 222.569 18.0587 222.925 18.2496C223.297 18.449 223.627 18.7253 223.979 18.9627C224.018 18.9889 224.079 18.9807 224.131 18.9885C224.108 18.9477 224.094 18.8978 224.062 18.8673C223.875 18.6906 223.676 18.5268 223.497 18.343C223.067 17.9008 222.657 17.4383 222.217 17.0063C221.784 16.5805 221.419 16.1012 221.124 15.5794C220.725 14.8722 220.473 14.1038 220.319 13.3028C220.294 13.1734 220.191 12.9951 220.083 12.9586C219.861 12.8831 219.603 12.8365 219.374 12.872C219.082 12.917 218.806 13.0551 218.502 13.1688ZM204.474 21.6968C204.499 21.7318 204.525 21.7665 204.55 21.8015C204.773 22.1057 204.993 22.4117 205.219 22.7134C205.354 22.894 205.498 23.0684 205.64 23.2441C205.653 23.2603 205.679 23.2663 205.698 23.2771C205.7 23.2516 205.708 23.2247 205.703 23.2009C205.696 23.1674 205.684 23.1328 205.665 23.1043C205.48 22.819 205.295 22.5338 205.106 22.2504C204.867 21.8898 204.619 21.5341 204.384 21.1708C204.009 20.5922 203.635 20.0122 203.272 19.4263C203.081 19.1182 202.902 18.8012 202.736 18.479C202.35 17.7317 202.057 16.9475 201.858 16.1306C201.73 15.608 201.599 15.085 201.503 14.5561C201.375 13.8512 201.272 13.142 201.263 12.4223C201.256 11.7957 201.217 11.1691 201.223 10.5427C201.228 10.0928 201.272 9.6423 201.317 9.19404C201.366 8.71833 201.432 8.24443 201.5 7.77102C201.524 7.60457 201.579 7.44288 201.611 7.27712C201.697 6.82547 201.763 6.36981 201.864 5.92171C201.967 5.46812 202.1 5.02147 202.221 4.57192C202.309 4.24374 202.385 3.91167 202.489 3.58881C202.633 3.14376 202.79 2.70239 202.959 2.2664C203.048 2.03703 203.175 1.82242 203.283 1.60038C203.299 1.56884 203.305 1.53262 203.316 1.4986C203.27 1.49256 203.219 1.47 203.18 1.48303C202.47 1.71974 201.832 2.08003 201.247 2.552C200.807 2.90737 200.431 3.31781 200.128 3.78384C199.563 4.65377 199.23 5.6235 199.043 6.63933C198.946 7.16992 198.892 7.70893 198.829 8.24551C198.796 8.53139 198.764 8.82102 198.773 9.10768C198.793 9.68257 198.837 10.2569 198.878 10.8308C198.937 11.6481 199.108 12.4489 199.361 13.2218C199.606 13.9677 199.899 14.7043 200.246 15.4083C200.609 16.1453 201.051 16.8447 201.476 17.5495C201.789 18.0682 202.113 18.5822 202.464 19.0756C202.969 19.7845 203.499 20.4745 204.024 21.1685C204.158 21.3451 204.313 21.5067 204.474 21.6968ZM212.392 7.66869C211.875 8.01614 211.422 8.43919 210.993 8.88785C210.372 9.53655 209.784 10.2164 209.33 10.9912C208.848 11.8143 208.498 12.7024 208.234 13.6198C208.094 14.1023 207.969 14.5894 207.857 15.0787C207.738 15.5944 207.638 16.1144 207.539 16.6342C207.44 17.1464 207.351 17.6603 207.261 18.174C207.131 18.9196 206.995 19.6646 206.879 20.4124C206.831 20.7268 206.829 21.0482 206.802 21.366C206.753 21.9382 206.696 22.5098 206.653 23.0823C206.645 23.1825 206.686 23.2866 206.704 23.3888C206.737 23.2815 206.8 23.173 206.797 23.0669C206.781 22.6097 206.818 22.1563 206.864 21.7029C206.893 21.4181 206.917 21.1323 206.961 20.8497C207.009 20.5406 207.078 20.2345 207.139 19.9275C207.19 19.6711 207.254 19.4166 207.294 19.1585C207.393 18.5184 207.575 17.9021 207.812 17.3016C208.02 16.7732 208.223 16.2416 208.46 15.7263C208.884 14.806 209.419 13.9515 210.05 13.1565C210.556 12.5189 211.128 11.947 211.771 11.4525C212.076 11.218 212.417 11.0278 212.749 10.8301C213.433 10.423 214.175 10.1584 214.953 10.0095C215.525 9.89991 216.107 9.83303 216.694 9.89896C216.906 9.92277 216.972 9.87534 216.975 9.66195C216.976 9.62244 216.958 9.58271 216.958 9.54284C216.946 8.83774 216.802 8.18429 216.314 7.63274C215.853 7.11173 215.282 6.83425 214.601 6.91305C213.827 7.00235 213.092 7.25573 212.392 7.66869ZM190.716 37.4527C190.542 37.3192 190.371 37.1832 190.195 37.0527C189.38 36.4464 188.559 35.8488 187.631 35.4187C187.044 35.1467 186.429 34.9609 185.798 34.8313C185.586 34.7877 185.365 34.7798 185.147 34.766C184.94 34.7528 184.731 34.7435 184.525 34.7522C184.415 34.7568 184.302 34.7846 184.289 34.9416C184.275 35.116 184.224 35.288 184.214 35.4624C184.188 35.9611 184.378 36.3992 184.641 36.8061C185.009 37.3762 185.485 37.8363 186.073 38.1836C186.572 38.4779 187.098 38.697 187.666 38.8016C188.369 38.9309 189.075 39.0219 189.796 38.9892C190.296 38.9664 190.798 38.9961 191.3 38.9902C191.862 38.9835 192.411 39.0571 192.95 39.2107C193.127 39.261 193.301 39.3187 193.479 39.3648C193.522 39.376 193.573 39.3554 193.621 39.3495C193.582 39.3193 193.548 39.279 193.505 39.2604C192.911 39.0045 192.376 38.649 191.847 38.2835C191.47 38.0218 191.103 37.7444 190.716 37.4527ZM218.106 11.6022C218.049 11.6122 217.99 11.6162 217.936 11.6333C217.171 11.8724 216.524 12.3037 215.989 12.8919C215.439 13.4974 214.907 14.12 214.383 14.7486C213.828 15.4139 213.302 16.1035 212.745 16.7667C212.385 17.1953 211.991 17.5953 211.613 18.0091C211.228 18.4311 210.818 18.834 210.465 19.2816C209.988 19.8851 209.553 20.5216 209.104 21.1468C208.559 21.9059 207.961 22.6326 207.583 23.4984C207.43 23.8502 207.293 24.2109 207.176 24.5762C207.112 24.7764 207.1 24.9945 207.076 25.2056C207.069 25.2614 207.102 25.3218 207.117 25.3801C207.161 25.344 207.211 25.3136 207.245 25.27C207.272 25.2348 207.269 25.1761 207.296 25.1409C207.604 24.7383 207.929 24.3481 208.223 23.9351C208.644 23.3418 209.053 22.7387 209.448 22.1277C209.768 21.6329 210.043 21.1082 210.369 20.6176C210.979 19.7006 211.661 18.8378 212.368 17.9932C212.992 17.2475 213.665 16.5493 214.399 15.9135C214.869 15.5068 215.357 15.1193 215.857 14.7503C216.445 14.3167 217.046 13.9005 217.657 13.5005C218.04 13.2499 218.442 13.0247 218.853 12.8227C219.183 12.6602 219.547 12.6123 219.916 12.6935C219.999 12.7117 220.079 12.745 220.16 12.7714C220.131 12.6842 220.118 12.5861 220.07 12.5115C219.779 12.0661 219.384 11.7475 218.86 11.6323C218.624 11.5801 218.372 11.5997 218.106 11.6022ZM185.778 34.2226C185.46 34.2737 185.142 34.3202 184.826 34.3784C184.725 34.3969 184.628 34.4416 184.534 34.4845C184.506 34.4975 184.493 34.5448 184.473 34.5765C184.504 34.5841 184.535 34.5986 184.566 34.5979C184.765 34.5934 184.966 34.5642 185.162 34.5836C185.485 34.6155 185.81 34.6552 186.123 34.7335C186.57 34.845 187.023 34.9594 187.447 35.1349C188.18 35.4382 188.859 35.8521 189.505 36.31C190.152 36.7688 190.781 37.2543 191.411 37.7377C192.109 38.273 192.861 38.724 193.61 39.1793C193.655 39.2061 193.712 39.214 193.765 39.2215C193.783 39.2241 193.812 39.2026 193.823 39.1842C193.829 39.1741 193.812 39.1435 193.799 39.1291C193.581 38.9037 193.357 38.6839 193.145 38.4539C192.8 38.0812 192.461 37.7034 192.122 37.3251C191.914 37.0922 191.727 36.8381 191.503 36.6217C191 36.135 190.464 35.6891 189.874 35.3031C189.192 34.8565 188.459 34.542 187.668 34.3719C187.263 34.2847 186.844 34.2527 186.429 34.2152C186.226 34.1965 186.02 34.2225 185.778 34.2226ZM190.977 35.8942C191.034 35.9431 191.097 35.9865 191.148 36.0415C191.738 36.6813 192.328 37.3207 192.914 37.9648C193.188 38.2671 193.451 38.5798 193.722 38.8857C193.743 38.9095 193.783 38.9159 193.814 38.9304C193.821 38.8937 193.841 38.8533 193.832 38.8214C193.805 38.7276 193.758 38.6392 193.732 38.545C193.608 38.0857 193.39 37.6703 193.128 37.279C192.694 36.6332 192.179 36.0584 191.58 35.5611C191.079 35.1455 190.552 34.7688 189.978 34.459C189.467 34.1832 188.942 33.9408 188.367 33.8363C187.944 33.7593 187.518 33.6537 187.093 33.6495C186.623 33.6448 186.147 33.7171 185.683 33.8031C185.421 33.8518 185.176 33.9954 184.925 34.099C184.906 34.1068 184.897 34.1375 184.883 34.1574C184.909 34.162 184.936 34.1689 184.962 34.1706C184.991 34.1723 185.023 34.1756 185.05 34.1674C185.657 33.9825 186.281 34.0124 186.897 34.0656C187.426 34.1112 187.944 34.2332 188.455 34.4023C189.095 34.6142 189.665 34.9419 190.218 35.3089C190.477 35.4804 190.714 35.6839 190.977 35.8942ZM227.966 27.1278C227.585 27.5696 227.164 27.9775 226.647 28.2452C225.777 28.6953 224.828 28.9242 223.872 29.1015C223.295 29.2083 222.706 29.251 222.124 29.3283C222.056 29.3373 221.993 29.3834 221.928 29.4121C222.004 29.4352 222.082 29.4805 222.157 29.4778C222.64 29.4595 223.123 29.4368 223.605 29.4032C224.125 29.3671 224.645 29.3265 225.164 29.2717C225.805 29.2039 226.436 29.0735 227.031 28.8171C227.497 28.6161 227.962 28.4069 228.408 28.1645C228.782 27.9609 229.052 27.6313 229.301 27.2866C229.399 27.152 229.427 27.0848 229.284 26.9547C229.093 26.7822 228.936 26.5696 228.779 26.3633C228.65 26.1933 228.66 26.1867 228.568 26.3609C228.553 26.391 228.525 26.4146 228.504 26.4419C228.332 26.6653 228.16 26.8888 227.966 27.1278ZM226.893 26.2841C226.799 26.4615 226.727 26.6558 226.606 26.8129C226.261 27.2635 225.869 27.6646 225.385 27.9805C224.799 28.3633 224.186 28.6744 223.512 28.8663C223.454 28.8828 223.407 28.938 223.355 28.9752C223.421 28.9893 223.488 29.0044 223.554 29.0163C223.563 29.0178 223.573 28.9989 223.585 28.9962C224.146 28.8564 224.709 28.7255 225.268 28.5766C226.094 28.3568 226.862 28.016 227.464 27.3903C227.788 27.0531 228.078 26.6816 228.364 26.3104C228.53 26.0944 228.511 26.0186 228.309 25.9084C227.996 25.7375 227.661 25.6156 227.304 25.5828C227.251 25.5779 227.165 25.6458 227.139 25.7011C227.053 25.8851 226.987 26.0787 226.893 26.2841Z" fill="#444444"/>
</g>
</svg>
